<svg width="234" height="49" viewBox="0 0 234 49" fill="none" xmlns="http://www.w3.org/2000/svg">
<rect x="87" y="14" width="147" height="20" fill="#4CE0D7"/>
<path d="M7.272 9.8V35H4.932V9.8H7.272ZM16.992 33.884V35H7.164V33.884H16.992ZM19.188 29.168L17.1 35H11.124L12.42 33.884C13.692 33.884 14.724 33.692 15.516 33.308C16.332 32.9 16.992 32.336 17.496 31.616C18 30.896 18.444 30.08 18.828 29.168H19.188ZM5.04 32.372V35H2.16V34.64C2.16 34.64 2.232 34.64 2.376 34.64C2.544 34.64 2.628 34.64 2.628 34.64C3.252 34.64 3.78 34.424 4.212 33.992C4.668 33.536 4.908 32.996 4.932 32.372H5.04ZM5.04 12.428H4.932C4.908 11.804 4.668 11.276 4.212 10.844C3.78 10.388 3.252 10.16 2.628 10.16C2.628 10.16 2.544 10.16 2.376 10.16C2.232 10.16 2.16 10.16 2.16 10.16V9.8H5.04V12.428ZM7.164 12.428V9.8H10.044V10.16C10.02 10.16 9.936 10.16 9.792 10.16C9.648 10.16 9.576 10.16 9.576 10.16C8.952 10.16 8.412 10.388 7.956 10.844C7.524 11.276 7.296 11.804 7.272 12.428H7.164ZM26.3115 9.8V25.64C26.3115 27.368 26.6235 28.892 27.2475 30.212C27.8955 31.532 28.7955 32.564 29.9475 33.308C31.0995 34.028 32.4315 34.388 33.9435 34.388C35.5515 34.388 36.9555 34.04 38.1555 33.344C39.3555 32.648 40.2915 31.688 40.9635 30.464C41.6355 29.216 41.9715 27.764 41.9715 26.108V9.8H43.6635V26.108C43.6635 27.98 43.2555 29.624 42.4395 31.04C41.6475 32.432 40.5195 33.524 39.0555 34.316C37.5915 35.108 35.8875 35.504 33.9435 35.504C31.9515 35.504 30.1995 35.12 28.6875 34.352C27.1995 33.56 26.0355 32.468 25.1955 31.076C24.3795 29.66 23.9715 28.016 23.9715 26.144V9.8H26.3115ZM24.0795 9.8V11.96H23.9715C23.9715 11.432 23.7795 11 23.3955 10.664C23.0355 10.328 22.5915 10.16 22.0635 10.16C22.0635 10.16 21.9675 10.16 21.7755 10.16C21.5835 10.16 21.4875 10.16 21.4875 10.16V9.8H24.0795ZM28.7955 9.8V10.16C28.7955 10.16 28.6995 10.16 28.5075 10.16C28.3155 10.16 28.2195 10.16 28.2195 10.16C27.6915 10.16 27.2355 10.328 26.8515 10.664C26.4915 11 26.3115 11.432 26.3115 11.96H26.2395V9.8H28.7955ZM42.0795 9.8V11.96H41.9715C41.9715 11.432 41.7795 11 41.3955 10.664C41.0355 10.328 40.5915 10.16 40.0635 10.16C40.0635 10.16 39.9675 10.16 39.7755 10.16C39.5835 10.16 39.4875 10.16 39.4875 10.16V9.8H42.0795ZM46.1475 9.8V10.16C46.1475 10.16 46.0515 10.16 45.8595 10.16C45.6675 10.16 45.5715 10.16 45.5715 10.16C45.0435 10.16 44.5875 10.328 44.2035 10.664C43.8435 11 43.6635 11.432 43.6635 11.96H43.5915V9.8H46.1475ZM53.5691 9.8L69.5891 34.964H66.7091L50.7611 9.8H53.5691ZM54.0371 32.408C53.8211 32.744 53.7611 33.092 53.8571 33.452C53.9531 33.788 54.1331 34.076 54.3971 34.316C54.6851 34.532 54.9851 34.64 55.2971 34.64C55.2971 34.64 55.3691 34.64 55.5131 34.64C55.6811 34.64 55.7651 34.64 55.7651 34.64V35H47.5931V34.64H48.0971C48.8651 34.64 49.5731 34.424 50.2211 33.992C50.8691 33.56 51.3851 33.068 51.7691 32.516L54.0371 32.408ZM59.0771 21.608L59.9051 23.156L52.4171 34.964H50.1131L59.0771 21.608ZM65.0891 32.408L68.0411 32.552C68.4251 33.104 68.9411 33.596 69.5891 34.028C70.2371 34.436 70.9331 34.64 71.6771 34.64H72.1811V35H63.3971V34.64C63.3971 34.64 63.4691 34.64 63.6131 34.64C63.7571 34.64 63.8291 34.64 63.8291 34.64C64.3331 34.64 64.7411 34.4 65.0531 33.92C65.3891 33.44 65.4011 32.936 65.0891 32.408ZM56.9171 9.8V10.16C56.9171 10.16 56.8451 10.16 56.7011 10.16C56.5571 10.16 56.4851 10.16 56.4851 10.16C56.1731 10.16 55.8731 10.28 55.5851 10.52C55.3211 10.736 55.1411 11.024 55.0451 11.384C54.9731 11.72 55.0331 12.056 55.2251 12.392L52.3451 12.284C51.9611 11.732 51.4451 11.24 50.7971 10.808C50.1731 10.376 49.4771 10.16 48.7091 10.16H48.2051V9.8H56.9171ZM69.0491 9.8L60.5891 22.256L59.3651 21.392L66.7091 9.8H69.0491ZM71.4971 9.8V10.16H70.9931C70.2491 10.16 69.5531 10.376 68.9051 10.808C68.2811 11.24 67.7651 11.732 67.3571 12.284L65.0531 12.392C65.2691 12.056 65.3291 11.72 65.2331 11.384C65.1611 11.024 64.9931 10.736 64.7291 10.52C64.4651 10.28 64.1651 10.16 63.8291 10.16C63.8291 10.16 63.7571 10.16 63.6131 10.16C63.4691 10.16 63.3971 10.16 63.3971 10.16V9.8H71.4971ZM94.0011 35.504L82.8411 10.016H85.9011L94.7211 32.084L94.0011 35.504ZM94.0011 35.504L93.6771 32.984L103.253 9.908H105.413L95.6571 31.796C95.6571 31.796 95.5851 31.952 95.4411 32.264C95.3211 32.552 95.1651 32.912 94.9731 33.344C94.8051 33.776 94.6491 34.196 94.5051 34.604C94.3851 35.012 94.3251 35.312 94.3251 35.504H94.0011ZM102.245 12.392C102.509 11.672 102.461 11.12 102.101 10.736C101.741 10.352 101.333 10.16 100.877 10.16H100.553V9.8H107.789V10.16C107.789 10.16 107.729 10.16 107.609 10.16C107.513 10.16 107.465 10.16 107.465 10.16C106.937 10.16 106.373 10.34 105.773 10.7C105.173 11.036 104.681 11.612 104.297 12.428L102.245 12.392ZM86.8731 12.392L83.8851 12.428C83.5251 11.612 83.0451 11.036 82.4451 10.7C81.8451 10.34 81.2691 10.16 80.7171 10.16C80.7171 10.16 80.6691 10.16 80.5731 10.16C80.4771 10.16 80.4291 10.16 80.4291 10.16V9.8H88.5291V10.16H88.2051C87.7491 10.16 87.3411 10.352 86.9811 10.736C86.6451 11.12 86.6091 11.672 86.8731 12.392ZM114.71 9.8V35H112.37V9.8H114.71ZM124.43 33.884V35H114.602V33.884H124.43ZM122.882 22.04V23.12H114.602V22.04H122.882ZM124.43 9.8V10.916H114.602V9.8H124.43ZM126.626 29.168L124.538 35H118.562L119.858 33.884C121.13 33.884 122.162 33.692 122.954 33.308C123.77 32.9 124.43 32.336 124.934 31.616C125.438 30.896 125.882 30.08 126.266 29.168H126.626ZM122.882 23.048V25.424H122.522V24.884C122.522 24.404 122.354 23.996 122.018 23.66C121.682 23.3 121.274 23.12 120.794 23.12V23.048H122.882ZM122.882 19.736V22.112H120.794V22.04C121.274 22.016 121.682 21.836 122.018 21.5C122.354 21.14 122.522 20.72 122.522 20.24V19.736H122.882ZM124.43 10.808V13.688H124.07V13.04C124.07 12.464 123.866 11.972 123.458 11.564C123.05 11.132 122.546 10.904 121.946 10.88V10.808H124.43ZM124.43 9.152V10.196L120.038 9.8C120.566 9.8 121.118 9.764 121.694 9.692C122.294 9.62 122.846 9.536 123.35 9.44C123.854 9.344 124.214 9.248 124.43 9.152ZM112.478 32.372V35H109.598V34.64C109.598 34.64 109.67 34.64 109.813 34.64C109.982 34.64 110.066 34.64 110.066 34.64C110.69 34.64 111.218 34.424 111.65 33.992C112.106 33.536 112.346 32.996 112.37 32.372H112.478ZM112.478 12.428H112.37C112.37 11.804 112.142 11.276 111.686 10.844C111.23 10.388 110.69 10.16 110.066 10.16C110.066 10.16 109.994 10.16 109.85 10.16C109.706 10.16 109.634 10.16 109.634 10.16L109.598 9.8H112.478V12.428ZM132.399 9.26L153.315 31.58L153.639 35.504L132.723 13.22L132.399 9.26ZM132.471 32.444V35H129.483V34.64C129.483 34.64 129.591 34.64 129.807 34.64C130.023 34.64 130.143 34.64 130.167 34.64C130.767 34.64 131.283 34.424 131.715 33.992C132.147 33.56 132.363 33.044 132.363 32.444H132.471ZM134.019 32.444C134.019 33.044 134.235 33.56 134.667 33.992C135.099 34.424 135.615 34.64 136.215 34.64C136.239 34.64 136.359 34.64 136.575 34.64C136.791 34.64 136.899 34.64 136.899 34.64V35H133.911V32.444H134.019ZM132.399 9.26L133.983 11.276L134.019 35H132.363V13.76C132.363 12.536 132.303 11.48 132.183 10.592C132.087 9.704 132.039 9.26 132.039 9.26H132.399ZM153.639 9.8V30.896C153.639 31.664 153.663 32.408 153.711 33.128C153.759 33.824 153.807 34.4 153.855 34.856C153.927 35.288 153.963 35.504 153.963 35.504H153.639L152.019 33.596V9.8H153.639ZM156.519 9.8V10.16C156.519 10.16 156.411 10.16 156.195 10.16C155.979 10.16 155.871 10.16 155.871 10.16C155.271 10.16 154.755 10.376 154.323 10.808C153.891 11.216 153.663 11.732 153.639 12.356H153.531V9.8H156.519ZM149.103 9.8H152.091V12.356H152.019C151.995 11.732 151.767 11.216 151.335 10.808C150.927 10.376 150.411 10.16 149.787 10.16C149.787 10.16 149.679 10.16 149.463 10.16C149.247 10.16 149.127 10.16 149.103 10.16V9.8ZM170.445 9.908V35H168.105V9.908H170.445ZM179.697 9.764V10.844H158.853V9.764H179.697ZM179.697 10.736V13.652L179.337 13.616V13.004C179.337 12.404 179.121 11.9 178.689 11.492C178.281 11.084 177.789 10.868 177.213 10.844V10.736H179.697ZM179.697 9.116V10.16L175.305 9.764C175.833 9.764 176.385 9.728 176.961 9.656C177.561 9.584 178.113 9.5 178.617 9.404C179.121 9.308 179.481 9.212 179.697 9.116ZM168.213 32.372V35H165.333V34.64C165.333 34.64 165.405 34.64 165.549 34.64C165.717 34.64 165.801 34.64 165.801 34.64C166.425 34.64 166.953 34.424 167.385 33.992C167.841 33.536 168.081 32.996 168.105 32.372H168.213ZM170.337 32.372H170.445C170.469 32.996 170.697 33.536 171.129 33.992C171.585 34.424 172.125 34.64 172.749 34.64C172.749 34.64 172.821 34.64 172.965 34.64C173.133 34.64 173.217 34.64 173.217 34.64V35H170.337V32.372ZM161.337 10.736V10.844C160.737 10.868 160.233 11.084 159.825 11.492C159.417 11.9 159.213 12.404 159.213 13.004V13.616L158.853 13.652V10.736H161.337ZM158.853 9.116C159.093 9.212 159.453 9.308 159.933 9.404C160.437 9.5 160.989 9.584 161.589 9.656C162.189 9.728 162.741 9.764 163.245 9.764L158.853 10.16V9.116ZM187.011 9.8V25.64C187.011 27.368 187.323 28.892 187.947 30.212C188.595 31.532 189.495 32.564 190.647 33.308C191.799 34.028 193.131 34.388 194.643 34.388C196.251 34.388 197.655 34.04 198.855 33.344C200.055 32.648 200.991 31.688 201.663 30.464C202.335 29.216 202.671 27.764 202.671 26.108V9.8H204.363V26.108C204.363 27.98 203.955 29.624 203.139 31.04C202.347 32.432 201.219 33.524 199.755 34.316C198.291 35.108 196.587 35.504 194.643 35.504C192.651 35.504 190.899 35.12 189.387 34.352C187.899 33.56 186.735 32.468 185.895 31.076C185.079 29.66 184.671 28.016 184.671 26.144V9.8H187.011ZM184.779 9.8V11.96H184.671C184.671 11.432 184.479 11 184.095 10.664C183.735 10.328 183.291 10.16 182.763 10.16C182.763 10.16 182.667 10.16 182.475 10.16C182.283 10.16 182.187 10.16 182.187 10.16V9.8H184.779ZM189.495 9.8V10.16C189.495 10.16 189.399 10.16 189.207 10.16C189.015 10.16 188.919 10.16 188.919 10.16C188.391 10.16 187.935 10.328 187.551 10.664C187.191 11 187.011 11.432 187.011 11.96H186.939V9.8H189.495ZM202.779 9.8V11.96H202.671C202.671 11.432 202.479 11 202.095 10.664C201.735 10.328 201.291 10.16 200.763 10.16C200.763 10.16 200.667 10.16 200.475 10.16C200.283 10.16 200.187 10.16 200.187 10.16V9.8H202.779ZM206.847 9.8V10.16C206.847 10.16 206.751 10.16 206.559 10.16C206.367 10.16 206.271 10.16 206.271 10.16C205.743 10.16 205.287 10.328 204.903 10.664C204.543 11 204.363 11.432 204.363 11.96H204.291V9.8H206.847ZM217.688 9.296C218.072 9.296 218.48 9.32 218.912 9.368C219.368 9.416 219.8 9.488 220.208 9.584C220.64 9.656 221.024 9.74 221.36 9.836C221.72 9.908 221.996 9.992 222.188 10.088V14.084H221.864C221.864 12.932 221.468 12.032 220.676 11.384C219.884 10.712 218.924 10.376 217.796 10.376C216.476 10.376 215.408 10.796 214.592 11.636C213.776 12.452 213.368 13.412 213.368 14.516C213.368 14.972 213.464 15.512 213.656 16.136C213.872 16.736 214.256 17.3 214.808 17.828L221.9 24.38C222.62 25.052 223.1 25.772 223.34 26.54C223.58 27.308 223.7 28.052 223.7 28.772C223.7 30.764 223.088 32.384 221.864 33.632C220.664 34.88 219.032 35.504 216.968 35.504C216.392 35.504 215.708 35.444 214.916 35.324C214.148 35.204 213.392 35 212.648 34.712C211.928 34.4 211.328 34.004 210.848 33.524C210.776 33.14 210.74 32.66 210.74 32.084C210.74 31.508 210.788 30.908 210.884 30.284C210.98 29.636 211.112 29.048 211.28 28.52H211.604C211.484 29.744 211.64 30.812 212.072 31.724C212.504 32.636 213.128 33.332 213.944 33.812C214.784 34.268 215.732 34.472 216.788 34.424C218.108 34.352 219.236 33.896 220.172 33.056C221.132 32.192 221.612 31.04 221.612 29.6C221.612 28.904 221.492 28.28 221.252 27.728C221.012 27.152 220.664 26.66 220.208 26.252L213.296 19.844C212.576 19.172 212.072 18.44 211.784 17.648C211.496 16.832 211.352 16.076 211.352 15.38C211.352 14.372 211.592 13.4 212.072 12.464C212.552 11.528 213.26 10.772 214.196 10.196C215.156 9.596 216.32 9.296 217.688 9.296ZM222.188 9.656V10.412H219.452V9.656H222.188Z" fill="#262626"/>
</svg>
